<svg enable-background="new 0 0 256 256" height="256px" version="1.1" viewBox="0 0 256 256" width="256px" xml:space="preserve" xmlns="http://www.w3.org/2000/svg" xmlns:xlink="http://www.w3.org/1999/xlink"><g id="Layer_1"><g id="Layer_2"><circle cx="128" cy="129" fill="#4FBA6F" r="128"></circle></g></g><g id="Layer_4"></g><g id="Layer_2_1_"><g><path d="M119.68,131.394c-15.109-3.942-27.591-14.454-27.591-30.876c0-15.329,13.138-26.935,27.591-29.343V53    h15.328v18.175c12.482,1.095,23.213,9.416,30.656,19.051l-10.729,9.416c-9.854-10.949-14.234-13.796-19.928-14.671v35.912    c17.736,2.627,33.284,13.358,33.284,32.847c0,18.176-16.204,30.877-33.284,31.096V203H119.68v-18.176    c-13.576-0.658-24.963-10.512-31.971-21.68l12.044-8.76c5.037,7.445,10.292,15.328,19.927,16.643V131.394z M119.68,84.97    c-7.227,1.752-12.262,9.196-12.262,16.204c0,7.226,5.255,13.139,12.262,15.547V84.97z M135.008,171.027    c9.635-0.438,17.956-7.445,17.956-17.518c0-9.635-8.759-16.424-17.956-17.736V171.027z" fill="#F1E912"></path></g></g><g id="Layer_3"></g></svg>