<svg viewBox="0 0 64 64" xmlns="http://www.w3.org/2000/svg"><title></title><g id="_55-woman"><rect height="4.243" style="fill:#e9edf5" transform="translate(-24.569 36.686) rotate(-45)" width="4.243" x="29.879" y="45.879"></rect><path d="M32,45l-3,3,3,3,3-3Zm13.5,9A23.169,23.169,0,0,1,47,63H17a23.169,23.169,0,0,1,1.5-9H13V44.25a3.994,3.994,0,0,1,3.18-3.92l4.42-.89A18.356,18.356,0,0,0,24,43V38.75l2.33-.47a1.943,1.943,0,0,0,1.02-.51C28.05,39.17,29.74,42,32,42s3.95-2.83,4.65-4.23a1.943,1.943,0,0,0,1.02.51l2.33.47V43a18.356,18.356,0,0,0,3.4-3.56l4.42.89A3.994,3.994,0,0,1,51,44.25V54Z" style="fill:#ff7045"></path><path d="M27.35,40.77C28.05,42.17,29.74,45,32,45s3.95-2.83,4.65-4.23a1.943,1.943,0,0,0,1.02.51l2.33.47v-3l-2.33-.47a1.943,1.943,0,0,1-1.02-.51C35.95,39.17,34.26,42,32,42s-3.95-2.83-4.65-4.23a1.943,1.943,0,0,1-1.02.51L24,38.75v3l2.33-.47A1.943,1.943,0,0,0,27.35,40.77Z" style="fill:#f92814"></path><polygon points="32 54 35 51 33.5 49.5 32 51 30.5 49.5 29 51 32 54" style="fill:#f92814"></polygon><path d="M16.18,43.33l4.42-.89A18.356,18.356,0,0,0,24,46V43a18.356,18.356,0,0,1-3.4-3.56l-4.42.89A3.994,3.994,0,0,0,13,44.25v3A3.994,3.994,0,0,1,16.18,43.33Z" style="fill:#f92814"></path><path d="M47.82,40.33l-4.42-.89A18.356,18.356,0,0,1,40,43v3a18.356,18.356,0,0,0,3.4-3.56l4.42.89A3.994,3.994,0,0,1,51,47.25v-3A3.994,3.994,0,0,0,47.82,40.33Z" style="fill:#f92814"></path><path d="M13,54h5.5A23.169,23.169,0,0,0,17,63H13Z" style="fill:#ffb680"></path><path d="M51,54v9H47a23.169,23.169,0,0,0-1.5-9Z" style="fill:#ffb680"></path><path d="M41,17a3,3,0,0,1,0,6h-.91l.55-6Z" style="fill:#eb975d"></path><path d="M36,31v4H28V31l.03-.06A7.954,7.954,0,0,0,32,32a7.843,7.843,0,0,0,3.96-1.06Z" style="fill:#eb975d"></path><path d="M36,36.31a1.94,1.94,0,0,0,.65,1.46C35.95,39.17,34.26,42,32,42s-3.95-2.83-4.65-4.23A1.94,1.94,0,0,0,28,36.31V35h8Z" style="fill:#ffb680"></path><path d="M40.64,17l-.55,6L40,24a8.014,8.014,0,0,1-2.34,5.66,7.585,7.585,0,0,1-1.7,1.28A7.843,7.843,0,0,1,32,32a8.013,8.013,0,0,1-8-8l-.35-3.9C32.48,17.16,36,8,36,8c0,5,5,5,5,5Z" style="fill:#ffdaaa"></path><path d="M36,11a4.792,4.792,0,0,0,4.731,4.985L41,13s-5,0-5-5c0,0-3.52,9.16-12.35,12.1l.26,2.9C32.543,19.965,36,11,36,11Z" style="fill:#ffb680"></path><path d="M27.35,37.77a1.943,1.943,0,0,1-1.02.51L24,38.75V24a7.974,7.974,0,0,0,4.03,6.94L28,31v5.31A1.94,1.94,0,0,1,27.35,37.77Z" style="fill:#cc9f56"></path><path d="M40,24V38.75l-2.33-.47A2.033,2.033,0,0,1,36,36.31V31l-.04-.06a7.585,7.585,0,0,0,1.7-1.28A8.014,8.014,0,0,0,40,24Z" style="fill:#cc9f56"></path><path d="M24,38.75V43a18.356,18.356,0,0,1-3.4-3.56A15.6,15.6,0,0,1,18,34V21a17.479,17.479,0,0,0,5.65-.9L24,24Z" style="fill:#fad17f"></path><path d="M46,20V34a15.6,15.6,0,0,1-2.6,5.44A18.356,18.356,0,0,1,40,43V24l.09-1H41a3,3,0,0,0,3-3Z" style="fill:#fad17f"></path><path d="M46,15v5H44a3,3,0,0,0-3-3h-.36L41,13s-5,0-5-5c0,0-3.52,9.16-12.35,12.1A17.479,17.479,0,0,1,18,21V15a14,14,0,0,1,28,0Z" style="fill:#fad17f"></path><path d="M41,10s-5,0-5-5c0,0-3.52,9.16-12.35,12.1A17.479,17.479,0,0,1,18,18v3a17.479,17.479,0,0,0,5.65-.9C32.48,17.16,36,8,36,8a4.792,4.792,0,0,0,4.731,4.985Z" style="fill:#fcf2b6"></path><path d="M41,14h-.09l-.27,3H41a3,3,0,0,1,3,3h2V17H44A3,3,0,0,0,41,14Z" style="fill:#fcf2b6"></path><path d="M23.65,20.1,24,24V43a18.356,18.356,0,0,1-3.4-3.56A15.6,15.6,0,0,1,18,34V21" style="fill:none;stroke:#000;stroke-linejoin:round;stroke-width:2px"></path><path d="M18,21V15a14,14,0,0,1,28,0V34a15.6,15.6,0,0,1-2.6,5.44A18.356,18.356,0,0,1,40,43V24l.09-1H41a3,3,0,0,0,0-6h-.36L41,13s-5,0-5-5c0,0-3.52,9.16-12.35,12.1A17.479,17.479,0,0,1,18,21Z" style="fill:none;stroke:#000;stroke-linejoin:round;stroke-width:2px"></path><path d="M18,21s3-9,7-12" style="fill:none;stroke:#000;stroke-linejoin:round;stroke-width:2px"></path><path d="M24,24a8.013,8.013,0,0,0,8,8,7.843,7.843,0,0,0,3.96-1.06,7.585,7.585,0,0,0,1.7-1.28A8.014,8.014,0,0,0,40,24" style="fill:none;stroke:#000;stroke-linejoin:round;stroke-width:2px"></path><line style="fill:none;stroke:#000;stroke-linejoin:round;stroke-width:2px" x1="40.64" x2="40.09" y1="17" y2="23"></line><line style="fill:none;stroke:#000;stroke-linejoin:round;stroke-width:2px" x1="23.65" x2="23.64" y1="20.1" y2="20"></line><path d="M20.6,39.44l-4.42.89A3.994,3.994,0,0,0,13,44.25V63H51V44.25a3.994,3.994,0,0,0-3.18-3.92l-4.42-.89" style="fill:none;stroke:#000;stroke-linejoin:round;stroke-width:2px"></path><path d="M40,38.75l-2.33-.47A2.033,2.033,0,0,1,36,36.31V31" style="fill:none;stroke:#000;stroke-linejoin:round;stroke-width:2px"></path><path d="M24,38.75l2.33-.47A2.033,2.033,0,0,0,28,36.31V31" style="fill:none;stroke:#000;stroke-linejoin:round;stroke-width:2px"></path><line style="fill:none;stroke:#000;stroke-linejoin:round;stroke-width:2px" x1="40.09" x2="40" y1="23" y2="23"></line><line style="fill:none;stroke:#000;stroke-linejoin:round;stroke-width:2px" x1="40.64" x2="40" y1="17" y2="17"></line><line style="fill:none;stroke:#000;stroke-linejoin:round;stroke-width:2px" x1="28" x2="36" y1="35" y2="35"></line><path d="M19,50v3a7.048,7.048,0,0,0-.5,1A23.169,23.169,0,0,0,17,63" style="fill:none;stroke:#000;stroke-linejoin:round;stroke-width:2px"></path><polyline points="13 54 18.5 54 19 54" style="fill:none;stroke:#000;stroke-linejoin:round;stroke-width:2px"></polyline><path d="M45,50v3a7.048,7.048,0,0,1,.5,1A23.169,23.169,0,0,1,47,63" style="fill:none;stroke:#000;stroke-linejoin:round;stroke-width:2px"></path><polyline points="51 54 45.5 54 45 54" style="fill:none;stroke:#000;stroke-linejoin:round;stroke-width:2px"></polyline><path d="M27,37s.12.31.35.77C28.05,39.17,29.74,42,32,42s3.95-2.83,4.65-4.23c.23-.46.35-.77.35-.77" style="fill:none;stroke:#000;stroke-linejoin:round;stroke-width:2px"></path><rect height="4.243" style="fill:none;stroke:#000;stroke-linejoin:round;stroke-width:2px" transform="translate(-24.569 36.686) rotate(-45)" width="4.243" x="29.879" y="45.879"></rect><line style="fill:none;stroke:#000;stroke-linejoin:round;stroke-width:2px" x1="32" x2="32" y1="42" y2="45"></line></g></svg>