<svg id="_01-business_man_avatar" viewBox="0 0 64 64" xmlns="http://www.w3.org/2000/svg"><title></title><polygon points="49 63 36 63 43 49 41 47 45 44 43.17 38.51 55 41 55 63 49 63" style="fill:#414952"></polygon><polygon points="39 63 45 51 43 49 36 63 39 63" style="fill:#333940"></polygon><polygon points="45.17 40.51 55 42.579 55 41 43.17 38.51 45 44 41 47 43 49 47 46 45.17 40.51" style="fill:#333940"></polygon><polygon points="43.17 38.51 45 44 41 47 39 45 39 40 39 37.63 43.17 38.51" style="fill:#7e8596"></polygon><path d="M32,15H28c-4,0-4-4-4-4v5a4.025,4.025,0,0,0-2.83,1.17L21,17l-1-1V13a12,12,0,0,1,24,0v3l-1,1-.17.17A4.025,4.025,0,0,0,40,16V15H32Z" style="fill:#d96330"></path><path d="M32,1a11.986,11.986,0,0,0-2,.18A11.989,11.989,0,0,1,40,13v3a4.025,4.025,0,0,1,2.83,1.17L43,17l1-1V13A12,12,0,0,0,32,1Z" style="fill:#963b11"></path><path d="M42.83,17.17A4,4,0,0,1,40,24V16A4.025,4.025,0,0,1,42.83,17.17Z" style="fill:#eb975d"></path><polygon points="43 49 36 63 32 63 35.1 55.04 39 45 41 47 43 49" style="fill:#636978"></polygon><path d="M40,24v1a7.992,7.992,0,0,1-11.97,6.94,7.838,7.838,0,0,1-1.69-1.28A8.014,8.014,0,0,1,24,25V21h1a3,3,0,0,0,6,0h2a3,3,0,0,0,6,0h1Z" style="fill:#ffdaaa"></path><path d="M40,16v5H39a3,3,0,0,0-6,0H31a3,3,0,0,0-6,0H24V11s0,4,4,4H40Z" style="fill:#ffb680"></path><polygon points="39 40 39 45 35.1 55.04 35 55 33 46 35 44 39 40" style="fill:#e9edf5"></polygon><polygon points="39 37.63 39 40 35 44 32 41 36 37 39 37.63" style="fill:#cdd2e1"></polygon><circle cx="36" cy="21" r="3" style="fill:#f5fafc"></circle><path d="M36,32v5l-4,4-4-4V32l.03-.06a7.964,7.964,0,0,0,7.94,0Z" style="fill:#ffb680"></path><polygon points="35.1 55.04 32 63 28.9 55.04 29 55 31 46 33 46 35 55 35.1 55.04" style="fill:#19cffc"></polygon><polygon points="35 44 33 46 31 46 29 44 32 41 35 44" style="fill:#19cffc"></polygon><polygon points="32 41 29 44 25 40 25 37.63 28 37 32 41" style="fill:#cdd2e1"></polygon><polygon points="28.9 55.04 32 63 28 63 21 49 23 47 25 45 28.9 55.04" style="fill:#636978"></polygon><polygon points="31 46 29 55 28.9 55.04 25 45 25 40 29 44 31 46" style="fill:#e9edf5"></polygon><circle cx="28" cy="21" r="3" style="fill:#f5fafc"></circle><path d="M36,18a2.986,2.986,0,0,0-1,.183,2.984,2.984,0,0,1,0,5.634A3,3,0,1,0,36,18Z" style="fill:#96e8ff"></path><circle cx="28" cy="21" r="3" style="fill:#f5fafc"></circle><polygon points="15 63 9 63 9 41 20.83 38.51 19 44 23 47 21 49 28 63 15 63" style="fill:#414952"></polygon><polygon points="25 40 25 45 23 47 19 44 20.83 38.51 25 37.63 25 40" style="fill:#7e8596"></polygon><path d="M24,21v3a4,4,0,1,1,0-8Z" style="fill:#eb975d"></path><path d="M28,18a2.986,2.986,0,0,0-1,.183,2.984,2.984,0,0,1,0,5.634A3,3,0,1,0,28,18Z" style="fill:#96e8ff"></path><polygon points="25 63 19 51 21 49 28 63 25 63" style="fill:#333940"></polygon><polygon points="18.83 40.51 9 42.579 9 41 20.83 38.51 19 44 23 47 21 49 17 46 18.83 40.51" style="fill:#333940"></polygon><path d="M40,15V25a7.992,7.992,0,0,1-11.97,6.94,7.838,7.838,0,0,1-1.69-1.28A8.014,8.014,0,0,1,24,25V11s0,4,4,4H40Z" style="fill:none;stroke:#000;stroke-linejoin:round;stroke-width:2px"></path><path d="M21,17l-1-1V13a12,12,0,0,1,24,0v3l-1,1" style="fill:none;stroke:#000;stroke-linejoin:round;stroke-width:2px"></path><path d="M40,24a4,4,0,1,0,0-8" style="fill:none;stroke:#000;stroke-linejoin:round;stroke-width:2px"></path><path d="M24,16a4,4,0,0,0,0,8" style="fill:none;stroke:#000;stroke-linejoin:round;stroke-width:2px"></path><polyline points="28 32 28 37 25 37.63 20.83 38.51 9 41 9 63 15 63 28 63 32 63 36 63 49 63 55 63 55 41 43.17 38.51 39 37.63 36 37 36 32" style="fill:none;stroke:#000;stroke-linejoin:round;stroke-width:2px"></polyline><line style="fill:none;stroke:#000;stroke-linejoin:round;stroke-width:2px" x1="40" x2="40" y1="15" y2="10"></line><path d="M28,10s0,5,4,5" style="fill:none;stroke:#000;stroke-linejoin:round;stroke-width:2px"></path><path d="M32,10s0,5,4,5" style="fill:none;stroke:#000;stroke-linejoin:round;stroke-width:2px"></path><path d="M36,10s0,5,4,5" style="fill:none;stroke:#000;stroke-linejoin:round;stroke-width:2px"></path><circle cx="36" cy="21" r="3" style="fill:none;stroke:#000;stroke-linejoin:round;stroke-width:2px"></circle><circle cx="28" cy="21" r="3" style="fill:none;stroke:#000;stroke-linejoin:round;stroke-width:2px"></circle><line style="fill:none;stroke:#000;stroke-linejoin:round;stroke-width:2px" x1="31" x2="33" y1="21" y2="21"></line><line style="fill:none;stroke:#000;stroke-linejoin:round;stroke-width:2px" x1="39" x2="40" y1="21" y2="21"></line><line style="fill:none;stroke:#000;stroke-linejoin:round;stroke-width:2px" x1="24" x2="25" y1="21" y2="21"></line><polyline points="28 37 32 41 36 37" style="fill:none;stroke:#000;stroke-linejoin:round;stroke-width:2px"></polyline><polyline points="39 37 39 37.63 39 40 35 44 32 41 29 44 25 40 25 37.63 25 37" style="fill:none;stroke:#000;stroke-linejoin:round;stroke-width:2px"></polyline><polyline points="29 44 31 46 33 46 35 44" style="fill:none;stroke:#000;stroke-linejoin:round;stroke-width:2px"></polyline><polyline points="25 40 25 45 28.9 55.04 32 63 35.1 55.04 39 45 39 40" style="fill:none;stroke:#000;stroke-linejoin:round;stroke-width:2px"></polyline><line style="fill:none;stroke:#000;stroke-linejoin:round;stroke-width:2px" x1="31" x2="29" y1="46" y2="55"></line><line style="fill:none;stroke:#000;stroke-linejoin:round;stroke-width:2px" x1="33" x2="35" y1="46" y2="55"></line><polyline points="39 45 41 47 43 49 36 63" style="fill:none;stroke:#000;stroke-linejoin:round;stroke-width:2px"></polyline><polyline points="25 45 23 47 21 49 28 63" style="fill:none;stroke:#000;stroke-linejoin:round;stroke-width:2px"></polyline><polyline points="41 47 45 44 43.17 38.51 43 38" style="fill:none;stroke:#000;stroke-linejoin:round;stroke-width:2px"></polyline><polyline points="23 47 19 44 20.83 38.51 21 38" style="fill:none;stroke:#000;stroke-linejoin:round;stroke-width:2px"></polyline><line style="fill:none;stroke:#000;stroke-linejoin:round;stroke-width:2px" x1="49" x2="49" y1="63" y2="50"></line><line style="fill:none;stroke:#000;stroke-linejoin:round;stroke-width:2px" x1="15" x2="15" y1="63" y2="50"></line></svg>