<svg viewBox="0 0 64 64" xmlns="http://www.w3.org/2000/svg"><title></title><g id="_06-student"><path d="M44,13v3l-1,1-.17.17A4.025,4.025,0,0,0,40,16V15s-4,0-4-4c0,0-1,4-4,4H24v1a4.025,4.025,0,0,0-2.83,1.17L21,17l-1-1V13a12,12,0,0,1,24,0Z" style="fill:#414952"></path><path d="M32,1a11.986,11.986,0,0,0-2,.18A11.989,11.989,0,0,1,40,13v3a4.025,4.025,0,0,1,2.83,1.17L43,17l1-1V13A12,12,0,0,0,32,1Z" style="fill:#707789"></path><path d="M24,16v8a4,4,0,1,1,0-8Z" style="fill:#eb975d"></path><path d="M42.83,17.17A4,4,0,0,1,40,24V16A4.025,4.025,0,0,1,42.83,17.17Z" style="fill:#eb975d"></path><path d="M40,24v1a8.014,8.014,0,0,1-2.34,5.66,7.838,7.838,0,0,1-1.69,1.28A8,8,0,0,1,24,25V15h8c3,0,4-4,4-4,0,4,4,4,4,4v9Z" style="fill:#ffdaaa"></path><path d="M36,11s-1,4-4,4H24v4h8c3,0,4-4,4-4,0,4,4,4,4,4V15S36,15,36,11Z" style="fill:#ffb680"></path><path d="M36,32v5l-4,4-4-4V32l.03-.06a7.964,7.964,0,0,0,7.94,0Z" style="fill:#ffb680"></path><path d="M35.97,31.94a7.964,7.964,0,0,1-7.94,0L28,32v3l.03-.06a7.964,7.964,0,0,0,7.94,0L36,35V32Z" style="fill:#eb975d"></path><polygon points="32 41 29 44 25 40 25 37.63 28 37 32 41" style="fill:#a0968c"></polygon><polygon points="39 37.63 39 40 35 44 32 41 36 37 39 37.63" style="fill:#a0968c"></polygon><polygon points="49 63 32 63 32 41 35 44 39 40 39 37.63 55 41 55 63 49 63" style="fill:#bc6829"></polygon><polygon points="15 63 9 63 9 41 25 37.63 25 40 29 44 32 41 32 63 15 63" style="fill:#bc6829"></polygon><polygon points="39 37.63 39 40 35 44 32 41 32 45 35 48 39 44 39 41.63 55 45 55 41 39 37.63" style="fill:#9e5015"></polygon><polygon points="29 44 25 40 25 37.63 9 41 9 45 25 41.63 25 44 29 48 32 45 32 41 29 44" style="fill:#9e5015"></polygon><path d="M40,16V15s-4,0-4-4c0,0-1,4-4,4H24V25a7.992,7.992,0,0,0,11.97,6.94,7.838,7.838,0,0,0,1.69-1.28A8.014,8.014,0,0,0,40,25V16Z" style="fill:none;stroke:#000;stroke-linejoin:round;stroke-width:2px"></path><path d="M43,17l1-1V13a12,12,0,0,0-24,0v3l1,1" style="fill:none;stroke:#000;stroke-linejoin:round;stroke-width:2px"></path><path d="M40,24a4,4,0,1,0,0-8" style="fill:none;stroke:#000;stroke-linejoin:round;stroke-width:2px"></path><path d="M24,16a4,4,0,0,0,0,8" style="fill:none;stroke:#000;stroke-linejoin:round;stroke-width:2px"></path><polyline points="28 32 28 37 25 37.63 9 41 9 63 15 63 32 63 49 63 55 63 55 41 39 37.63 36 37 36 32" style="fill:none;stroke:#000;stroke-linejoin:round;stroke-width:2px"></polyline><polyline points="28 37 32 41 36 37" style="fill:none;stroke:#000;stroke-linejoin:round;stroke-width:2px"></polyline><polyline points="39 37 39 37.63 39 40 35 44 32 41 29 44 25 40 25 37.63 25 37" style="fill:none;stroke:#000;stroke-linejoin:round;stroke-width:2px"></polyline><line style="fill:none;stroke:#000;stroke-linejoin:round;stroke-width:2px" x1="32" x2="32" y1="41" y2="63"></line><line style="fill:none;stroke:#000;stroke-linejoin:round;stroke-width:2px" x1="15" x2="15" y1="63" y2="50"></line><line style="fill:none;stroke:#000;stroke-linejoin:round;stroke-width:2px" x1="49" x2="49" y1="63" y2="50"></line><line style="fill:none;stroke:#000;stroke-linejoin:round;stroke-width:2px" x1="27" x2="29" y1="48" y2="48"></line><line style="fill:none;stroke:#000;stroke-linejoin:round;stroke-width:2px" x1="27" x2="29" y1="53" y2="53"></line><line style="fill:none;stroke:#000;stroke-linejoin:round;stroke-width:2px" x1="27" x2="29" y1="58" y2="58"></line></g></svg>