<svg viewBox="0 0 500 474.5" xmlns="http://www.w3.org/2000/svg"><defs><style>.cls-1{fill:#62626a;}.cls-2{fill:#ff9e9d;}.cls-3{fill:#fff;stroke:#62626a;stroke-miterlimit:10;stroke-width:9px;}</style></defs><title></title><g id="Layer_2"><g id="Layer_1-2"><path class="cls-1" d="M500,250A250.28,250.28,0,0,1,368.85,470H131.15A250,250,0,1,1,500,250Z"></path><circle class="cls-2" cx="250" cy="180" r="150"></circle><path class="cls-3" d="M400,333.23V470H100V333.23a52.75,52.75,0,0,1,42.39-51.72l20.13-4,33.3-6.66a276.76,276.76,0,0,1,108.36,0l36.18,7.23,17.25,3.45A52.75,52.75,0,0,1,400,333.23Z"></path><path class="cls-3" d="M304.18,270.83q-12-2.4-24.18-3.7V230H220v37.13q-12.15,1.32-24.18,3.7l-33.3,6.66a54.57,54.57,0,0,0,53.55,44h70.86a54.55,54.55,0,0,0,53.43-43.44Z"></path><path class="cls-3" d="M310,130v60a60,60,0,0,1-60,60h0a60,60,0,0,1-60-60V130"></path><line class="cls-3" x1="320" x2="180" y1="130" y2="130"></line><circle class="cls-1" cx="275" cy="165" r="5"></circle><circle class="cls-1" cx="225" cy="165" r="5"></circle><path class="cls-3" d="M270,200h0a20,20,0,0,1-40,0"></path><path class="cls-3" d="M330,350v31.42A47.9,47.9,0,0,1,330,440v30"></path><path class="cls-3" d="M170,350v31.42A47.9,47.9,0,0,0,170,440v30"></path></g></g></svg>