<svg height="60px" version="1.1" viewBox="0 0 60 60" width="60px" xmlns="http://www.w3.org/2000/svg" xmlns:xlink="http://www.w3.org/1999/xlink"><title></title><desc></desc><defs></defs><g fill="none" fill-rule="evenodd" id="Page-1" stroke="none" stroke-width="1"><g id="019---Star" transform="translate(0.000000, 1.000000)"><g id="Colour"><path d="M32.22661,1.14435 L39.542,16.94809 C39.8065174,17.5417153 40.3508295,17.9633542 40.99173,18.07109 L57.34936,20.60534 C58.0940129,20.763184 58.6940639,21.313222 58.9159539,22.0413618 C59.1378439,22.7695016 58.9465156,23.560701 58.41644,24.107 L46.57994,36.40845 C46.1217402,36.8944427 45.916903,37.5665973 46.02619,38.22553 L48.82041,55.59553 C48.9836915,56.3335951 48.7066699,57.0996366 48.1090816,57.5625504 C47.5114932,58.0254642 46.7005252,58.1022193 46.0267,57.75964 L31.396,49.55863 C30.8400413,49.2442133 30.1599587,49.2442133 29.604,49.55863 L14.97329,57.75963 C14.2994648,58.1022093 13.4884968,58.0254542 12.8909084,57.5625404 C12.2933201,57.0996266 12.0162985,56.3335851 12.17958,55.59552 L14.9738,38.22552 C15.083087,37.5665873 14.8782498,36.8944327 14.42005,36.40844 L2.58356,24.107 C2.0535115,23.5606949 1.86220426,22.7695083 2.08409867,22.0413849 C2.30599308,21.3132616 2.9060324,20.7632366 3.65067,20.60539 L20.0083,18.0711 C20.6492005,17.9633642 21.1935126,17.5417253 21.45803,16.9481 L28.77339,1.14435 C29.0668139,0.450707781 29.7468486,-1.07928721e-06 30.5,-1.07928721e-06 C31.2531514,-1.07928721e-06 31.9331861,0.450707781 32.22661,1.14435 Z" fill="#FFE100" id="Shape"></path><path d="M37.39,13.11 C32.5890747,15.6770414 28.15587,18.8791741 24.21,22.63 C20.0044812,26.6560517 16.436883,31.2993247 13.63,36.4 L1.59009,24.11 C1.05224467,23.5636351 0.858777828,22.7655877 1.086713,22.0335783 C1.31464817,21.3015689 1.92698179,20.7544339 2.67993,20.61 L19.32007,18.07 C19.967444,17.9624793 20.520694,17.5438036 20.80007,16.95 L28.24,1.14 C28.5507895,0.446404951 29.2399578,1.95277886e-05 30,1.95277886e-05 C30.7600422,1.95277886e-05 31.4492105,0.446404951 31.76,1.14 L37.39,13.11 Z" fill="#FFB600" id="Shape"></path><path d="M46.36,36.41 C45.8953952,36.8936017 45.687642,37.5688718 45.80006,38.23 L48.64,55.6 C48.7949431,56.345884 48.5075221,57.1144319 47.9011646,57.5756052 C47.294807,58.0367786 46.4774141,58.1085116 45.8,57.76 L44.05,56.8 C44.857371,56.3859367 45.2996839,55.4931951 45.14,54.6 L42.3,37.23 C42.1875977,36.5688621 42.3953735,35.8935906 42.86,35.41 L54.90992,23.11 C55.6690076,22.3180868 55.6993906,21.0781411 54.98,20.25 L57.32009,20.61 C58.0730382,20.7544339 58.6853718,21.3015689 58.913307,22.0335783 C59.1412422,22.7655877 58.9477753,23.5636351 58.40993,24.11 L46.36,36.41 Z" fill="#FFB600" id="Shape"></path><path d="M14.36,54.6 C14.1698076,55.6081579 14.7621263,56.5996478 15.74,56.91 L14.2,57.76 C13.5225859,58.1085116 12.705193,58.0367786 12.0988354,57.5756052 C11.4924779,57.1144319 11.2050569,56.345884 11.36,55.6 L14.2,38.23 C14.3124023,37.5688621 14.1046265,36.8935906 13.64,36.41 L1.59009,24.11 C1.05224467,23.5636351 0.858777828,22.7655877 1.086713,22.0335783 C1.31464817,21.3015689 1.92698179,20.7544339 2.67993,20.61 L4.43993,20.34 C3.79546051,21.1725986 3.85938779,22.3519431 4.59008,23.11 L16.64,35.41 C17.1046265,35.8935906 17.3124023,36.5688621 17.2,37.23 L14.36,54.6 Z" fill="#FFFFFF" id="Shape"></path><path d="M31.62,0.89 L24.3,16.45 C24.020624,17.0438036 23.467374,17.4624793 22.82,17.57 L19.33,18.1 L19.32,18.07 C19.967374,17.9624793 20.520624,17.5438036 20.8,16.95 L28.24,1.14 C28.5297679,0.494594174 29.1499551,0.0599189464 29.8554981,0.00773381748 C30.561041,-0.0444513114 31.2384306,0.294249305 31.62,0.89 Z" fill="#FFFFFF" id="Shape"></path></g><g id="Outline"><circle cx="13.21299" cy="44.17941" fill="#000000" fill-rule="nonzero" id="Oval" r="1"></circle><path d="M13.87,40.23 L14.2,38.23 C14.3123679,37.5688643 14.1045968,36.8936081 13.64,36.41 L1.59,24.11 C1.05218664,23.5635995 0.858761033,22.7655408 1.0867276,22.033538 C1.31469417,21.3015353 1.9270458,20.7544186 2.68,20.61 L19.32,18.07 C19.9673992,17.9625381 20.5206736,17.5438439 20.8,16.95 L28.24,1.14 C28.5507832,0.446397569 29.2399536,5.07226368e-06 30,5.07226368e-06 C30.7600464,5.07226368e-06 31.4492168,0.446397569 31.76,1.14 L39.2,16.95 C39.4793264,17.5438439 40.0326008,17.9625381 40.68,18.07 L57.32,20.61 C58.0729542,20.7544186 58.6853058,21.3015353 58.9132724,22.033538 C59.141239,22.7655408 58.9478134,23.5635995 58.41,24.11 L46.36,36.41 C45.8954032,36.8936081 45.6876321,37.5688643 45.8,38.23 L48.64,55.6 C48.7949604,56.345888 48.507544,57.1144485 47.9011805,57.5756263 C47.2948171,58.0368041 46.4774134,58.1085294 45.8,57.76 L30.91,49.56 C30.345531,49.2400003 29.654469,49.2400003 29.09,49.56 L14.2,57.76 C13.5225866,58.1085294 12.7051829,58.0368041 12.0988195,57.5756263 C11.492456,57.1144485 11.2050396,56.345888 11.36,55.6 L12.58,48.13" id="Shape" stroke="#000000" stroke-linecap="round" stroke-linejoin="round" stroke-width="2"></path><path d="M13.63,36.4 C16.4368578,31.2993082 20.0044588,26.6560316 24.21,22.63 C28.1558735,18.8791782 32.5890776,15.677046 37.39,13.11" id="Shape" stroke="#000000" stroke-linecap="round" stroke-linejoin="round"></path></g></g></g></svg>